<svg xmlns="http://www.w3.org/2000/svg" viewBox="0 0 200 180"><defs><style>.cls-1{fill:#fff;}.cls-2,.cls-3{fill:none;stroke:#e3e3e3;stroke-width:3px;}.cls-2{stroke-miterlimit:10;}.cls-3{stroke-linecap:round;stroke-linejoin:round;}</style></defs><title>cheese.com-cheese-default-new</title><g id="Layer_2" data-name="Layer 2"><g id="Layer_1-2" data-name="Layer 1"><g id="Layer_2-2" data-name="Layer 2"><rect class="cls-1" width="200" height="180"/></g><g id="Layer_2-3" data-name="Layer 2"><g id="Layer_1-2-2" data-name="Layer 1-2"><g id="Layer_2-2-2" data-name="Layer 2-2"><g id="Layer_3" data-name="Layer 3"><path class="cls-2" d="M81.75,57V43l25.67-21,11.16,3.33s-1.33,10,6.5,12.33,12.5-7,12.5-7L179.08,43V82.68s-11.33,3.17-14.83,6.17-6.83,13.5-6.83,13.5H147.14"/><line class="cls-2" x1="81.75" y1="43.02" x2="179.08" y2="43.02"/><circle class="cls-2" cx="139.25" cy="57.68" r="6.33"/><circle class="cls-2" cx="165.92" cy="68.02" r="6.67"/><path class="cls-3" d="M20.92,93.15h122.5v20.5s-5.83.83-5.83,9.5c0,9.83,5.83,10.5,5.83,10.5v24.5H20.92Z"/><path class="cls-3" d="M107.8,49.21l11.62,14.44s-6.83,5.83-1.83,12.33c5.68,7.38,12.33.67,12.33.67l13.5,16.5H20.92l33.5-18a10.78,10.78,0,0,0,12.5,2c6.69-3.13,5.5-11,5.5-11Z"/><ellipse class="cls-3" cx="94.67" cy="73.57" rx="5.25" ry="8.42"/><ellipse class="cls-3" cx="51.92" cy="110.24" rx="6.67" ry="9.08"/><ellipse class="cls-3" cx="102" cy="136.65" rx="9.25" ry="11"/></g></g></g></g></g></g></svg>